<svg width="33" height="25" viewBox="0 0 33 25" fill="none" xmlns="http://www.w3.org/2000/svg">
<path d="M32.811 11.9469C30.0513 6.13702 23.7762 0.898438 16.4356 0.898438C8.17599 0.898438 2.23899 7.35962 0.0601731 11.9469C-0.105995 12.2968 -0.105995 12.7032 0.0601731 13.0531C2.81983 18.863 9.09495 24.1016 16.4356 24.1016C24.6951 24.1016 30.6321 17.6402 32.811 13.0531C32.9771 12.7032 32.9771 12.2968 32.811 11.9469ZM16.4356 21.5235C10.4968 21.5235 5.57293 17.6097 2.68463 12.5C5.56085 7.41123 10.4817 3.47656 16.4356 3.47656C22.3738 3.47656 27.2982 7.38983 30.1865 12.5C27.3103 17.5885 22.3894 21.5235 16.4356 21.5235ZM16.4356 6.05469C12.8816 6.05469 9.99024 8.94602 9.99024 12.5C9.99024 16.054 12.8816 18.9453 16.4356 18.9453C19.9896 18.9453 22.8809 16.054 22.8809 12.5C22.8809 8.94602 19.9896 6.05469 16.4356 6.05469V6.05469ZM16.4356 16.3672C14.3033 16.3672 12.5684 14.6323 12.5684 12.5C12.5684 10.3675 14.3033 8.63282 16.4356 8.63282C18.5681 8.63282 20.3028 10.3675 20.3028 12.5C20.3028 14.6323 18.5681 16.3672 16.4356 16.3672V16.3672Z" fill="#BB993E"/>
</svg>
