<svg width="36" height="30" viewBox="0 0 36 30" fill="none" xmlns="http://www.w3.org/2000/svg">
<path d="M35.7311 7.55364C35.5309 7.33019 35.2453 7.2025 34.9453 7.2025H30.8304V3.53008C30.8304 2.94761 30.3582 2.47539 29.7757 2.47539H11.6746V1.2168C11.6746 0.634328 11.2024 0.162109 10.6199 0.162109H1.05469C0.472219 0.162109 0 0.634328 0 1.2168L0.00126562 28.776C-0.000632813 29.0191 0.081 29.2577 0.237305 29.4493C0.437625 29.695 0.737719 29.8375 1.05469 29.8375H32.6745C33.2121 29.8375 33.6637 29.4331 33.7228 28.8988L35.9936 8.37306C36.0266 8.07508 35.9311 7.77709 35.7311 7.55364ZM2.10938 2.27148H9.56524V3.53008C9.56524 4.11255 10.0375 4.58477 10.6199 4.58477H28.721V7.2025H5.27372C4.77309 7.2025 4.34145 7.55442 4.24069 8.04485L2.10938 18.4136V2.27148ZM31.7301 27.7283H2.34816L6.13364 9.31195H33.7675L31.7301 27.7283Z" fill="white"/>
</svg>
